<?xml version="1.0" standalone="no"?>
<!DOCTYPE svg PUBLIC "-//W3C//DTD SVG 20010904//EN"
 "http://www.w3.org/TR/2001/REC-SVG-20010904/DTD/svg10.dtd">
<svg version="1.0" xmlns="http://www.w3.org/2000/svg"
 width="1500.000000pt" height="1500.000000pt" viewBox="0 0 1500.000000 1500.000000"
 preserveAspectRatio="xMidYMid meet">
<metadata>
Created by potrace 1.11, written by Peter Selinger 2001-2013
</metadata>
<g transform="translate(0.000000,1500.000000) scale(0.100000,-0.100000)"
fill="#000000" stroke="none">
<path d="M0 7500 l0 -7500 7500 0 7500 0 0 7500 0 7500 -7500 0 -7500 0 0
-7500z m10235 4557 c195 -35 366 -99 492 -185 73 -50 207 -191 251 -265 79
-131 127 -277 159 -481 17 -104 18 -261 18 -2411 0 -2160 -1 -2307 -18 -2413
-24 -154 -59 -268 -117 -387 -142 -293 -383 -459 -775 -533 -82 -15 -256 -17
-2034 -19 -1569 -3 -1942 -1 -1939 9 3 7 141 421 307 921 l303 907 1219 0
1219 0 0 1520 0 1520 -1830 0 -1830 0 0 -3660 0 -3660 -915 0 -915 0 3 4098 3
4097 21 95 c44 196 86 302 168 426 164 247 450 397 825 432 54 6 1204 9 2695
8 2354 -2 2609 -4 2690 -19z"/>
</g>
</svg>
